<svg t="1695797261044" class="icon" viewBox="0 0 1024 1024" version="1.1" xmlns="http://www.w3.org/2000/svg" p-id="3972" width="200" height="200"><path d="M160 32c-12.0064 0-24.8064 4.8-33.6 14.4-8.8064 9.6-14.4 21.6064-14.4 33.6v864c0 12.0064 4.8 24.8064 14.4 33.6 9.6 9.6 21.6064 14.4 33.6 14.4h704c12.0064 0 24.8064-4.8 33.6-14.4 9.6-9.6 14.4-21.6064 14.4-33.6v-640L640 32H160z" fill="#5ACC9B" p-id="3973"></path><path d="M912 304h-224c-12.0064 0-24.8064-4.8-33.6-14.4C644.8 280.7936 640 267.9936 640 256V32l272 272z" fill="#BDEBD7" p-id="3974"></path><path d="M475.2 537.6l-108.8-152H441.6l71.2064 108.8 74.3936-108.8h72.8064L548.7872 537.6 665.6 699.2h-76.0064l-78.3872-115.2-78.4128 116.0064H358.4z" fill="#FFFFFF" p-id="3975"></path></svg>